<svg xmlns="http://www.w3.org/2000/svg" width="27.83" height="18.553" viewBox="0 0 27.83 18.553">
  <defs>
    <style>
      .cls-1 {
        fill: #fff;
      }
    </style>
  </defs>
  <path id="Icon_awesome-newspaper" data-name="Icon awesome-newspaper" class="cls-1" d="M26.67,4.5H4.252a1.16,1.16,0,0,0-1.16,1.16v.387H1.16A1.16,1.16,0,0,0,0,7.206V20.348a2.706,2.706,0,0,0,2.706,2.706h22.8a2.319,2.319,0,0,0,2.319-2.319V5.66A1.16,1.16,0,0,0,26.67,4.5ZM2.706,20.734a.387.387,0,0,1-.387-.387V8.365h.773V20.348A.387.387,0,0,1,2.706,20.734Zm11.4-.773H6.764a.58.58,0,0,1-.58-.58v-.387a.58.58,0,0,1,.58-.58h7.344a.58.58,0,0,1,.58.58v.387A.58.58,0,0,1,14.108,19.961Zm10.05,0H16.814a.58.58,0,0,1-.58-.58v-.387a.58.58,0,0,1,.58-.58h7.344a.58.58,0,0,1,.58.58v.387A.58.58,0,0,1,24.158,19.961Zm-10.05-4.638H6.764a.58.58,0,0,1-.58-.58v-.387a.58.58,0,0,1,.58-.58h7.344a.58.58,0,0,1,.58.58v.387A.58.58,0,0,1,14.108,15.323Zm10.05,0H16.814a.58.58,0,0,1-.58-.58v-.387a.58.58,0,0,1,.58-.58h7.344a.58.58,0,0,1,.58.58v.387A.58.58,0,0,1,24.158,15.323Zm0-4.638H6.764a.58.58,0,0,1-.58-.58V8.172a.58.58,0,0,1,.58-.58H24.158a.58.58,0,0,1,.58.58V10.1A.58.58,0,0,1,24.158,10.684Z" transform="translate(0 -4.5)"/>
</svg>
