<svg xmlns="http://www.w3.org/2000/svg" width="31" height="31" viewBox="0 0 31 31"><g transform="translate(-1257.868 -3500.868)"><path d="M15.5,3A12.5,12.5,0,0,0,6.661,24.339,12.5,12.5,0,1,0,24.339,6.661,12.418,12.418,0,0,0,15.5,3m0-3A15.5,15.5,0,1,1,0,15.5,15.5,15.5,0,0,1,15.5,0Z" transform="translate(1257.868 3500.868)" fill="#fff"/><path d="M8.016,7.2l.356-2.317H6.149V3.38A1.158,1.158,0,0,1,7.455,2.129H8.465V.157A12.323,12.323,0,0,0,6.671,0,2.828,2.828,0,0,0,3.644,3.118V4.884H1.609V7.2H3.644v5.6h2.5V7.2Z" transform="translate(1268.397 3510.034)" fill="#fff"/></g></svg>