<svg xmlns="http://www.w3.org/2000/svg" width="47.625" height="47.625" viewBox="0 0 47.625 47.625">
  <defs>
    <style>
      .cls-1 {
        fill: #fff;
      }
    </style>
  </defs>
  <path id="Icon_ionic-ios-close-circle" data-name="Icon ionic-ios-close-circle" class="cls-1" d="M27.188,3.375A23.813,23.813,0,1,0,51,27.188,23.809,23.809,0,0,0,27.188,3.375Zm6.033,32.433-6.033-6.033-6.033,6.033a1.83,1.83,0,1,1-2.587-2.587L24.6,27.188l-6.033-6.033a1.83,1.83,0,1,1,2.587-2.587L27.188,24.6l6.033-6.033a1.83,1.83,0,1,1,2.587,2.587l-6.033,6.033,6.033,6.033a1.838,1.838,0,0,1,0,2.587A1.817,1.817,0,0,1,33.221,35.808Z" transform="translate(-3.375 -3.375)"/>
</svg>
