<?xml version="1.0" encoding="iso-8859-1"?>
<!-- Generator: Adobe Illustrator 20.0.0, SVG Export Plug-In . SVG Version: 6.00 Build 0)  -->
<svg version="1.1" id="Layer_1_1_" xmlns="http://www.w3.org/2000/svg" xmlns:xlink="http://www.w3.org/1999/xlink" x="0px" y="0px"
	 viewBox="0 0 64 64" style="enable-background:new 0 0 64 64;" xml:space="preserve">
<path d="M57,10h-5V6c0-2.206-1.794-4-4-4s-4,1.794-4,4v4H20V6c0-2.206-1.794-4-4-4s-4,1.794-4,4v4H7c-2.757,0-5,2.243-5,5v42
	c0,2.757,2.243,5,5,5h50c2.757,0,5-2.243,5-5V15C62,12.243,59.757,10,57,10z M46,6c0-1.103,0.897-2,2-2s2,0.897,2,2v8
	c0,1.103-0.897,2-2,2s-2-0.897-2-2V6z M14,6c0-1.103,0.897-2,2-2s2,0.897,2,2v8c0,1.103-0.897,2-2,2s-2-0.897-2-2V6z M7,12h5v2
	c0,2.206,1.794,4,4,4s4-1.794,4-4v-2h24v2c0,2.206,1.794,4,4,4s4-1.794,4-4v-2h5c1.654,0,3,1.346,3,3v7H4v-7C4,13.346,5.346,12,7,12
	z M57,60H7c-1.654,0-3-1.346-3-3V24h56v33C60,58.654,58.654,60,57,60z"/>
<rect x="31" y="18" width="2" height="2"/>
<rect x="35" y="18" width="2" height="2"/>
<rect x="27" y="18" width="2" height="2"/>
<path d="M31,56c-6.398,0-11.927-4.391-13.516-10.451l4.2,1.4l0.633-1.897l-6-2c-0.36-0.12-0.756-0.026-1.023,0.242l-4,4l1.414,1.414
	l2.802-2.802C17.273,52.91,23.634,58,31,58c7.976,0,14.786-5.962,15.843-13.868l-1.982-0.265C43.936,50.784,37.978,56,31,56z"/>
<path d="M46.491,38.095C44.727,31.09,38.366,26,31,26c-7.976,0-14.786,5.962-15.843,13.868l1.982,0.265
	C18.064,33.216,24.022,28,31,28c6.398,0,11.927,4.391,13.516,10.451l-4.2-1.4l-0.633,1.897l6,2C45.787,40.983,45.895,41,46,41
	c0.261,0,0.517-0.103,0.707-0.293l4-4l-1.414-1.414L46.491,38.095z"/>
<path d="M30.707,46.707l7-7l-1.414-1.414L30,44.586l-2.293-2.293l-1.414,1.414l3,3C29.488,46.902,29.744,47,30,47
	S30.512,46.902,30.707,46.707z"/>
</svg>
