<svg xmlns="http://www.w3.org/2000/svg" width="28.45" height="19.915" viewBox="0 0 28.45 19.915">
  <defs>
    <style>
      .cls-1 {
        fill: #fff;
      }
    </style>
  </defs>
  <path id="Icon_awesome-user-friends" data-name="Icon awesome-user-friends" class="cls-1" d="M8.535,12.207A4.979,4.979,0,1,0,3.556,7.229,4.976,4.976,0,0,0,8.535,12.207Zm3.414,1.422H11.58a6.874,6.874,0,0,1-6.09,0H5.121A5.122,5.122,0,0,0,0,18.751v1.28a2.134,2.134,0,0,0,2.134,2.134h12.8a2.134,2.134,0,0,0,2.134-2.134v-1.28A5.122,5.122,0,0,0,11.949,13.63Zm9.388-1.422A4.267,4.267,0,1,0,17.07,7.94,4.269,4.269,0,0,0,21.337,12.207Zm2.134,1.422H23.3a5.606,5.606,0,0,1-3.93,0H19.2a4.937,4.937,0,0,0-2.476.685,6.505,6.505,0,0,1,1.765,4.436v1.707c0,.1-.022.191-.027.285h7.85a2.134,2.134,0,0,0,2.134-2.134,4.976,4.976,0,0,0-4.979-4.979Z" transform="translate(0 -2.25)"/>
</svg>
