<svg xmlns="http://www.w3.org/2000/svg" width="52.527" height="31.51" viewBox="0 0 52.527 31.51"><path d="M42.087,15a10.383,10.383,0,0,0-3.479.566l-2.7-4.5H42.67A1.965,1.965,0,0,0,44.639,9.1V6.469A1.965,1.965,0,0,0,42.67,4.5H38.952a1.97,1.97,0,0,0-1.461.648L34.415,8.57,32.544,5.452a1.983,1.983,0,0,0-1.69-.952H24.289a1.317,1.317,0,0,0-1.313,1.313V7.126a1.317,1.317,0,0,0,1.313,1.313h5.449l1.575,2.626H18.7c-1.452-1.9-3.684-3.282-8.2-3.282H5.949a2,2,0,0,0-2.01,2.01,1.967,1.967,0,0,0,1.969,1.928h4.6a4.345,4.345,0,0,1,3.922,2.035L13.5,15.438a10.5,10.5,0,1,0,7.18,12.694h6.909a1.97,1.97,0,0,0,1.969-2.06,12.43,12.43,0,0,1,4.612-10.257l1.026,1.707A10.505,10.505,0,1,0,42.087,15ZM10.5,32.071a6.564,6.564,0,1,1,0-13.129,6.105,6.105,0,0,1,1.026.082L8.124,25.211a1.972,1.972,0,0,0,1.723,2.921h6.671A6.582,6.582,0,0,1,10.5,32.071Zm38.066-6.2a6.565,6.565,0,0,1-13.121-.361,6.511,6.511,0,0,1,1.813-4.521l4.054,6.761a1.318,1.318,0,0,0,1.805.451l1.124-.673A1.318,1.318,0,0,0,44.7,25.72l-3.988-6.638a6.284,6.284,0,0,1,1.3-.131,6.564,6.564,0,0,1,6.556,6.917Z" transform="translate(0.002 -4.5)" fill="rgb(235, 200, 0)"/></svg>