<svg xmlns="http://www.w3.org/2000/svg" width="45.143" height="34.572" viewBox="0 0 95.143 84.572">
  <defs>
    <style>
      .cls-1 {
        fill: #fff;
      }
    </style>
  </defs>
  <path id="Icon_awesome-shopping-cart" data-name="Icon awesome-shopping-cart" class="cls-1" d="M87.235,49.772l7.809-34.357a3.964,3.964,0,0,0-3.866-4.843H26.3l-1.514-7.4A3.964,3.964,0,0,0,20.9,0H3.964A3.964,3.964,0,0,0,0,3.964V6.607a3.964,3.964,0,0,0,3.964,3.964H15.508L27.111,67.3a9.251,9.251,0,1,0,11.074,1.415H72.815A9.248,9.248,0,1,0,83.32,67l.911-4.01a3.964,3.964,0,0,0-3.866-4.843H36.028l-1.081-5.286H83.369A3.964,3.964,0,0,0,87.235,49.772Z"/>
</svg>
