<svg xmlns="http://www.w3.org/2000/svg" width="20" height="21" viewBox="0 0 26.402 27"><path d="M26.043,23.343,20.9,18.086a1.223,1.223,0,0,0-.877-.369h-.841a11.071,11.071,0,0,0,2.269-6.749A10.848,10.848,0,0,0,10.727,0,10.848,10.848,0,0,0,0,10.968,10.848,10.848,0,0,0,10.727,21.935a10.526,10.526,0,0,0,6.6-2.32v.859a1.279,1.279,0,0,0,.361.9l5.142,5.257a1.214,1.214,0,0,0,1.748,0l1.459-1.492A1.292,1.292,0,0,0,26.043,23.343ZM10.727,17.717a6.673,6.673,0,0,1-6.6-6.749,6.673,6.673,0,0,1,6.6-6.749,6.673,6.673,0,0,1,6.6,6.749A6.673,6.673,0,0,1,10.727,17.717Z" fill="#fff"/></svg>