<?xml version="1.0" ?><!DOCTYPE svg  PUBLIC '-//W3C//DTD SVG 1.1//EN'  'http://www.w3.org/Graphics/SVG/1.1/DTD/svg11.dtd'><svg enable-background="new 0 0 512 512" fill="#fff" height="512px" id="Package" version="1.1" viewBox="0 0 512 512" width="512px" xml:space="preserve" xmlns="http://www.w3.org/2000/svg" xmlns:xlink="http://www.w3.org/1999/xlink"><g><g><g><path d="M240.574,214.165v-60.338h-60.339v60.338H240.574z M190.235,163.826h40.339v40.338h-40.339V163.826z"/><rect height="10" fill="#fff" width="27.635" x="196.587" y="178.995"/><rect height="10" fill="#fff" width="35.455" x="309.119" y="81.511"/><rect height="10" fill="#fff" width="35.455" x="309.119" y="99.501"/></g><g><rect height="10" fill="#fff" width="15.833" x="50.144" y="474.09"/><polygon points="129.373,474.09 77.477,474.09 77.477,484.09 129.373,484.09 263.477,484.09 344.574,484.09 344.574,474.09      263.477,474.09 139.373,474.09 139.373,295.501 129.373,295.501    "/><rect height="11.904" fill="#fff" width="10" x="129.373" y="272.752"/><path d="M382.033,240.933h-74.916v74.915h74.916V240.933z M372.033,305.848h-54.916v-54.915h54.916V305.848z"/><rect height="10" fill="#fff" width="35.635" x="326.756" y="259.01"/><rect height="10" fill="#fff" width="35.635" x="326.756" y="273.391"/><path d="M269.402,416.793H151.809v45.408h117.593V416.793z M259.402,452.201h-97.593v-25.408h97.593V452.201z"/><rect height="10" width="12" fill="#fff" x="181.664" y="434.497"/><rect height="10" width="12" fill="#fff" x="229.664" y="434.497"/><rect height="10" fill="#fff" width="12" x="205.664" y="434.497"/><rect height="10" fill="#fff" width="37.129" x="344.664" y="323.71"/><rect height="10" fill="#fff" width="37.129" x="344.664" y="341.7"/></g><path d="M461.855,474.09h-62.422V222.944H293.492h-58.178h-66.742V37.91h72.15v73.101h47.362V37.91h72.15v169.822h10V27.91h-82.15    h-47.362h-82.15v195.034h-29.199v38.89h10v-28.89h95.941v114.259h58.178V232.944h95.941V474.09h-32.912v10h37.912h5h62.422V474.09    z M278.084,37.91v63.101h-27.362V37.91H278.084z M283.492,337.203h-38.178V232.944h38.178V337.203z"/></g></g></svg>