<svg xmlns="http://www.w3.org/2000/svg" width="22.6" height="22.761" viewBox="0 0 22.6 22.761">
  <defs>
    <style>
      .cls-1 {
        fill: #fff;
      }
    </style>
  </defs>
  <path id="Icon_awesome-hands-helping" data-name="Icon awesome-hands-helping" class="cls-1" d="M17.232,8.537H11.864v2.49c0,1.765-1.141,3.2-2.543,3.2s-2.543-1.436-2.543-3.2V5.62L4.487,7.354a3.05,3.05,0,0,0-1.1,2.436v2.1L.564,13.947A1.634,1.634,0,0,0,.151,15.89l2.825,6.162a1.015,1.015,0,0,0,1.543.52l3.651-2.654h4.824a2.606,2.606,0,0,0,2.26-2.845h.565a1.3,1.3,0,0,0,1.13-1.423V12.8h.283a.974.974,0,0,0,.848-1.067V9.6A.974.974,0,0,0,17.232,8.537Zm5.216-1.663L19.623.712a1.015,1.015,0,0,0-1.543-.52L14.428,2.846H10.819a1.946,1.946,0,0,0-1.2.431l-1.183.929a1.527,1.527,0,0,0-.53,1.2v5.615A1.627,1.627,0,0,0,9.322,12.8a1.627,1.627,0,0,0,1.413-1.778V7.114h6.5A2.28,2.28,0,0,1,19.209,9.6v1.267l2.825-2.054a1.64,1.64,0,0,0,.413-1.943Z" transform="translate(0.002 -0.002)"/>
</svg>
