<svg xmlns="http://www.w3.org/2000/svg" width="266.158" height="186" viewBox="0 0 266.158 186">
  <g id="truck" transform="translate(-195.704 -1583)">
    <path id="Tracé_1" data-name="Tracé 1" d="M3376-889.971h18.021a40.379,40.379,0,0,1,7.2,1.843,20.238,20.238,0,0,1,5.84,3.374l2.253,1.626,2.188,2.222,10.6,10.436,14.339,14.551,3.021,4.943,2.722,8.28.175,39.2a7.139,7.139,0,0,1-.463,2.263,6.532,6.532,0,0,1-1.862,2.55,6.063,6.063,0,0,1-3.593.713H3177.2v-92Z" transform="translate(-2981 2526)" fill="#232227" stroke="#ffff" stroke-width="3"/>
    <g id="Rectangle_44" data-name="Rectangle 44" transform="translate(196 1583)" fill="#232227" stroke="#fff" stroke-width="3">
      <rect width="199" height="116" stroke="none"/>
      <rect x="0.5" y="0.5" width="198" height="115" fill="none"/>
    </g>
    <path id="Tracé_2" data-name="Tracé 2" d="M3379.266-870.031v19.957h35.442l-18.422-17.958a8.04,8.04,0,0,0-1.785-1.25,10.607,10.607,0,0,0-2.249-.75Z" transform="translate(-2981 2526)" fill="#232227" stroke="#fff" stroke-width="1"/>
    <g id="Ellipse_8" data-name="Ellipse 8" transform="translate(197 1705)" fill="#232227" stroke="#fff" stroke-width="7">
      <circle cx="32" cy="32" r="32" stroke="none"/>
      <circle cx="32" cy="32" r="23.5" fill="none"/>
    </g>
    <g id="Ellipse_9" data-name="Ellipse 9" transform="translate(271 1705)" fill="#232227" stroke="#fff" stroke-width="7">
      <circle cx="32" cy="32" r="32" stroke="none"/>
      <circle cx="32" cy="32" r="23.5" fill="none"/>
    </g>
    <g id="Ellipse_10" data-name="Ellipse 10" transform="translate(383 1705)" fill="#232227" stroke="#fff" stroke-width="7">
      <circle cx="32" cy="32" r="32" stroke="none"/>
      <circle cx="32" cy="32" r="23.5" fill="none"/>
    </g>
  </g>
</svg>
