<svg xmlns="http://www.w3.org/2000/svg" width="27.201" height="27.201" viewBox="0 0 27.201 27.201">
  <path id="Icon_simple-whatsapp" data-name="Icon simple-whatsapp" d="M19.832,16.3c-.341-.17-2-.983-2.312-1.095s-.536-.17-.763.17-.874,1.093-1.07,1.317-.4.238-.732.085a9.2,9.2,0,0,1-2.723-1.683,10.283,10.283,0,0,1-1.881-2.346c-.2-.34-.022-.527.147-.7.154-.153.341-.391.511-.593a2.873,2.873,0,0,0,.337-.562.623.623,0,0,0-.028-.594c-.085-.17-.762-1.836-1.045-2.5s-.552-.578-.762-.578c-.195-.017-.42-.017-.647-.017a1.278,1.278,0,0,0-.9.407,3.784,3.784,0,0,0-1.184,2.805A6.631,6.631,0,0,0,8.157,13.9a15.112,15.112,0,0,0,5.78,5.083c.809.34,1.439.544,1.931.713A4.689,4.689,0,0,0,18,19.837a3.488,3.488,0,0,0,2.285-1.616,2.805,2.805,0,0,0,.2-1.615c-.084-.153-.306-.238-.646-.391M13.67,24.651h-.018a11.338,11.338,0,0,1-5.729-1.564l-.408-.243-4.25,1.105L4.4,19.818l-.271-.425A11.241,11.241,0,0,1,21.639,5.526a11.093,11.093,0,0,1,3.3,7.922,11.255,11.255,0,0,1-11.26,11.2m9.58-20.743A13.761,13.761,0,0,0,13.651,0,13.475,13.475,0,0,0,1.922,20.217L0,27.2l7.18-1.872a13.671,13.671,0,0,0,6.472,1.64h.007A13.533,13.533,0,0,0,27.2,13.486,13.367,13.367,0,0,0,23.24,3.953" fill="#fff"/>
</svg>
